<?xml version="1.0" standalone="no"?>
<!DOCTYPE svg PUBLIC "-//W3C//DTD SVG 20010904//EN"
 "http://www.w3.org/TR/2001/REC-SVG-20010904/DTD/svg10.dtd">
<svg version="1.0" xmlns="http://www.w3.org/2000/svg"
 width="700.000000pt" height="700.000000pt" viewBox="0 0 700.000000 700.000000"
 preserveAspectRatio="xMidYMid meet">
<metadata>
Created by potrace 1.14, written by Peter Selinger 2001-2017
</metadata>
<g transform="translate(0.000000,700.000000) scale(0.100000,-0.100000)"
fill="#000000" stroke="none">
<path d="M3378 6415 c-2 -1 -48 -5 -103 -9 -55 -3 -120 -9 -145 -12 -45 -6
-278 -48 -315 -58 -410 -103 -772 -278 -1105 -535 -224 -173 -453 -416 -621
-661 -241 -350 -429 -835 -475 -1225 -4 -27 -8 -52 -9 -55 -8 -13 -19 -227
-19 -360 0 -225 11 -345 50 -545 155 -815 649 -1523 1360 -1953 324 -195 731
-341 1079 -387 28 -4 61 -9 75 -11 108 -17 415 -23 589 -11 57 4 107 9 110 11
3 2 33 6 66 10 33 3 114 18 180 31 160 34 146 30 260 66 849 266 1528 893
1855 1713 91 229 144 432 184 706 26 176 26 538 1 730 -55 409 -190 799 -395
1140 -167 278 -403 553 -640 745 -52 42 -104 84 -115 93 -55 44 -263 176 -364
231 -346 185 -717 297 -1121 336 -64 7 -377 15 -382 10z m297 -590 c88 -5 186
-17 235 -29 14 -3 36 -8 50 -10 273 -45 632 -200 890 -385 558 -399 905 -1004
975 -1701 7 -69 7 -327 0 -395 -11 -114 -19 -168 -36 -252 -6 -29 -10 -54 -10
-55 1 -2 -8 -37 -20 -78 -11 -41 -22 -82 -24 -90 -14 -60 -82 -233 -136 -346
-154 -321 -404 -623 -709 -857 -82 -63 -263 -173 -360 -219 -138 -66 -172 -80
-286 -117 -578 -194 -1183 -159 -1738 99 -131 61 -346 193 -433 267 -12 10
-37 29 -55 43 -56 42 -282 271 -340 345 -186 237 -315 481 -402 755 -37 116
-80 310 -91 410 -3 30 -8 73 -11 95 -5 46 -5 335 0 380 2 17 6 62 10 100 17
162 90 440 163 615 202 484 594 911 1068 1164 147 79 429 185 534 202 19 3 44
9 56 14 19 7 102 21 210 35 22 3 85 8 140 11 55 4 101 7 102 8 3 3 105 -1 218
-9z"/>
<path d="M3337 4804 c-2 -2 -23 -6 -48 -9 -186 -24 -431 -130 -600 -261 -63
-49 -220 -217 -267 -286 -126 -184 -204 -394 -228 -613 -6 -49 -5 -237 2 -285
37 -301 164 -562 378 -775 256 -254 570 -385 926 -386 355 0 668 129 921 381
151 150 260 323 323 512 26 79 28 88 51 203 19 99 14 375 -9 480 -108 491
-458 864 -937 1000 -111 31 -215 44 -361 43 -81 0 -149 -2 -151 -4z m247
-1026 c115 -32 206 -153 206 -273 0 -173 -142 -305 -312 -292 -106 9 -188 64
-241 162 -30 55 -31 193 -3 245 44 82 108 137 184 160 40 12 120 11 166 -2z"/>
</g>
</svg>
